<?xml version="1.0" encoding="utf-8" ?>
<svg xmlns="http://www.w3.org/2000/svg" xmlns:xlink="http://www.w3.org/1999/xlink" width="32" height="32">
	<path fill="#A7C957" transform="scale(0.0625 0.0625)" d="M316.533 203.377C313.808 202.027 311.743 200.231 309.639 198.057C275.671 162.97 297.28 101.994 342.637 86.8055C345.348 85.8978 350.94 83.6299 353.278 86.4185C356.366 90.1036 349.63 95.2066 347.731 97.9321C334.144 117.433 339.395 143.765 337.394 165.947C342.979 158.924 351.302 151.561 355.562 145.791C349.678 133.677 360.687 124.079 369.938 117.993C386.633 107.011 410.684 101.862 430.351 106.039C433.226 106.65 435.983 108.121 434.529 111.466C433.158 114.62 425.707 115.647 422.818 116.72C412.93 120.393 403.269 126.52 395.653 133.837C385.86 143.245 376.362 159.607 360.894 152.31C347.231 164.589 325.853 191.992 322.411 211.082C337.089 193.15 351.985 186.955 372.463 177.242C379.583 173.865 386.819 170.318 392.784 165.082C395.047 163.095 400.237 153.959 403.849 158.344C406 160.955 404.363 169.144 403.747 172.218C395.907 211.333 355.615 236.379 316.533 228.291C314.589 235.753 310.288 251.317 310.709 258.646C315.813 256.379 321.201 254.052 326.579 252.537C344.145 257.177 333.772 271.337 325.113 278.935C324.297 279.886 323.385 280.627 322.411 281.404C326.804 279.476 331.492 276.747 336.387 276.808C337.879 266.202 344.823 257.34 353.178 250.99C376.29 233.425 416.379 243.518 434.231 224.449C436.155 222.393 438.523 218.075 441.784 218.65C446.568 219.494 444.499 227.078 443.688 230.058C438.256 250 423.155 267.875 406.784 279.92C391.516 291.154 364.905 302.943 346.317 293.258C339.624 301.939 332.412 308.432 324.305 315.549C321.324 318.011 318.321 320.45 315.371 322.95C317.212 326.802 318.635 330.828 320.638 334.613C327.548 347.672 354.177 381.521 370.752 382.879C373.418 383.098 379.134 382.322 381.24 384.157C382.551 385.299 382.297 388.057 381.092 389.167C378.389 391.659 371.633 390.8 368.086 390.758C369.566 393.604 370.867 396.498 371.923 399.529C367.243 413.612 359.245 390.381 356.535 387.013C352.943 382.549 347.592 379.149 343.381 375.225C328.991 361.814 315.656 346.416 308.745 327.744C300.121 332.047 276.123 347.403 269.413 345.435C267.348 344.829 265.934 342.166 266.684 340.126C267.729 337.279 272.72 336.645 275.182 335.723C298.16 327.111 319.805 311.649 336.002 293.399C337.894 291.267 340.962 288.375 341.885 285.682L341.625 285.205C340.435 284.541 339.154 284.339 337.834 284.062C323.128 287.062 302.741 300.053 286.197 304.968C276.098 300.027 288.26 295.914 291.863 294.022C303.802 287.755 314.896 278.865 323.887 268.886C325.109 267.53 332.074 259.01 325.113 262.237C320.792 263.136 316.781 265.044 312.621 266.473C296.043 272.168 280.095 273.798 262.734 272.069C242.962 270.101 230.938 266.545 214.779 280.798C205.75 288.762 207.689 293.904 197.289 287.48C177.132 275.028 172.627 265.233 159.673 248.415C135.748 217.353 95.3239 238.511 102.942 272.309C105.289 282.723 112.442 294.018 121.596 299.751C132.495 306.578 130.814 301.845 132.532 314.906C136.094 341.986 151.484 366.715 173.345 382.801C174.081 383.343 175.546 384.15 176.025 384.858C218.487 410.192 262.421 403.483 291.921 363.398C293.688 360.998 298.031 351.927 301.825 354.404C311.533 360.742 278.74 389.152 273.991 392.507C272.122 393.762 270.171 394.937 268.568 396.531C271.078 399.87 278.273 411.178 279.608 414.435C280.77 417.271 278.375 420.803 275.152 419.908C272.372 419.136 263.287 402.676 261.553 399.529C256.79 401.442 252.22 402.906 247.265 404.253C249.788 408.031 256.704 418.401 257.964 422.087C259.246 425.84 254.721 429.317 251.931 426.03C248.128 421.55 242.574 410.964 239.513 405.632C213.499 410.946 183.766 402.777 163.569 385.866C160.475 384.036 157.727 380.696 155.221 378.156C137.318 360.015 126.263 335.993 123.696 310.669C112.058 303.919 106.51 298.567 99.6676 286.891C93.2127 285.71 68.7651 285.348 68.2554 278.65C67.9616 274.788 75.3182 271.382 77.934 269.5C89.4536 261.212 92.2866 258.467 97.9587 246.134C106.174 228.27 126.714 221.007 144.717 226.977C163.954 233.356 168.456 249.747 180.846 263.19C188.168 271.135 194.91 274.726 202.266 281.404C225.008 254.562 243.784 263.825 273.686 264.745C284.354 265.073 290.765 263.137 300.565 262.237C296.412 256.988 292.233 251.464 287.75 246.508C266.442 249.402 251.562 220.817 248.167 203.661C244.934 187.329 248.875 168.747 258.184 155.048C261.77 149.772 265.924 149.477 266.03 156.764C266.487 188.057 289.443 192.012 299.055 215.867C302.84 225.258 302.334 234.991 295.187 242.8C297.986 245.562 300.537 248.64 303.041 251.669C304.136 240.669 310.865 213.385 316.533 203.377ZM344.444 278.039C346.948 279.588 348.725 281.072 349.395 284.062C350.189 290.52 368.138 288.434 372.576 287.555C393.438 283.427 426.303 257.723 432.881 236.743C432.585 236.449 432.752 236.509 432.411 236.488C426.775 239.41 421.135 241.826 414.913 243.234C390.888 248.671 351.252 245.927 344.444 278.039ZM93.4304 267.166C90.1999 270.878 86.199 273.294 83.1328 276.808C84.774 276.703 86.3397 276.695 87.9806 276.808C90.6975 277.263 93.4448 277.562 96.1546 278.039C95.7912 276.155 94.6453 268.309 93.4304 267.166ZM337.394 97.7303C305.952 115.376 289.149 155.735 310.709 187.017C313.192 190.179 316.213 192.611 319.021 195.438C321.921 189.544 325.595 183.796 327.342 177.429C334.495 151.354 324.147 125.303 337.622 98.1L337.394 97.7303ZM409.936 112.858C396.812 114.591 384.034 118.681 372.884 125.955C367.219 129.651 356.531 137.97 364.912 144.798C374.087 149.387 387.743 129.416 394.771 123.396C399.569 119.286 405.591 115.64 411.31 112.935C410.793 112.774 410.475 112.828 409.936 112.858ZM394.702 174C371.634 190.427 351.326 191.142 329.532 214.395C328.615 215.372 322.529 220.838 324.305 221.992C329.908 221.725 335.445 222.225 341.043 221.578C366.433 218.643 386.812 197.684 394.88 174.343L394.702 174ZM259.031 171.138C254.007 182.38 254.091 198.399 258.427 209.798C262.456 220.389 273.825 243.635 288.595 237.826C305.651 224.757 275.318 198.749 268.885 189.314C266.629 186.006 264.328 182.591 262.469 179.041C261.431 177.058 260.466 172.465 259.031 171.138Z"/>
	<path fill="#6A994E" transform="scale(0.0625 0.0625)" d="M336.387 276.808C337.879 266.202 344.823 257.34 353.178 250.99C376.29 233.425 416.379 243.518 434.231 224.449C436.155 222.393 438.523 218.075 441.784 218.65C446.568 219.494 444.499 227.078 443.688 230.058C438.256 250 423.155 267.875 406.784 279.92C391.516 291.154 364.905 302.943 346.317 293.258C339.624 301.939 332.412 308.432 324.305 315.549C321.324 318.011 318.321 320.45 315.371 322.95C317.212 326.802 318.635 330.828 320.638 334.613C327.548 347.672 354.177 381.521 370.752 382.879C373.418 383.098 379.134 382.322 381.24 384.157C382.551 385.299 382.297 388.057 381.092 389.167C378.389 391.659 371.633 390.8 368.086 390.758C369.566 393.604 370.867 396.498 371.923 399.529C367.243 413.612 359.245 390.381 356.535 387.013C352.943 382.549 347.592 379.149 343.381 375.225C328.991 361.814 315.656 346.416 308.745 327.744C300.121 332.047 276.123 347.403 269.413 345.435C267.348 344.829 265.934 342.166 266.684 340.126C267.729 337.279 272.72 336.645 275.182 335.723C298.16 327.111 319.805 311.649 336.002 293.399C337.894 291.267 340.962 288.375 341.885 285.682L341.625 285.205C340.435 284.541 339.154 284.339 337.834 284.062C323.128 287.062 302.741 300.053 286.197 304.968C276.098 300.027 288.26 295.914 291.863 294.022C303.802 287.755 314.896 278.865 323.887 268.886C325.109 267.53 332.074 259.01 325.113 262.237C325.406 260.919 326.737 260.804 327.811 261.299C331.034 264.812 325.663 266.484 324.339 269.352C322.343 273.676 302.358 288.705 298.038 291.327C294.846 293.264 277.105 299.476 285.567 303.997C288.089 305.344 317.394 291.53 320.763 290.018C373.568 266.324 313.752 316.912 304.209 321.146C301.411 322.388 294.475 327.941 291.603 328.748C289.472 329.348 285.163 332.118 281.92 333.421L273.14 336.934C271.328 337.669 269.574 338.802 267.703 339.337C265.589 341.414 268.554 345.175 271.185 344.967C280.264 344.246 298.612 332.498 306.89 328.126C310.278 326.336 310.228 330.177 311.79 333.669C314.715 340.203 331.766 367.399 338.413 368.176L338.684 367.87L338.219 366.559L338.443 366.15C340.019 366.117 341.591 366.028 343.164 365.943L343.835 366.777L344.026 366.778L343.499 366.414L343.735 366.191C339.387 359.798 332.181 353.49 327.23 346.437C324.86 343.06 314.739 326.869 315.025 322.729C316.524 320.86 322.017 316.302 324.305 315.549C325.667 313.077 335.619 304.94 338.806 301.45C339.837 300.32 345.788 292.923 345.871 292.862C348.275 293.114 354.425 291.404 355.508 289.233C354.734 287.736 350.971 287.774 349.566 286.52C348.486 285.557 348.682 282.52 347.836 281.195C346.77 279.526 344.411 279.572 344.258 277.152C343.802 269.964 351.507 263.554 355.543 258.939C363.668 249.645 385.211 246.882 396.486 245.642L396.704 245.318C396.353 243.651 396.938 240.177 395.642 238.998C392.583 237.759 375.823 241.976 370.414 243.312C359.131 246.099 345.425 255.661 340.154 266.486C339.245 268.351 337.128 275.607 336.249 276.35C335.928 276.623 322.794 281.78 322.233 281.749L322.131 281.494C322.739 280.212 323.855 279.409 324.936 278.534L325.113 278.935C324.297 279.886 323.385 280.627 322.411 281.404C326.804 279.476 331.492 276.747 336.387 276.808ZM344.444 278.039C346.948 279.588 348.725 281.072 349.395 284.062C350.189 290.52 368.138 288.434 372.576 287.555C393.438 283.427 426.303 257.723 432.881 236.743C432.585 236.449 432.752 236.509 432.411 236.488C426.775 239.41 421.135 241.826 414.913 243.234C390.888 248.671 351.252 245.927 344.444 278.039Z"/>
	<path fill="#6A994E" transform="scale(0.0625 0.0625)" d="M176.025 384.858C218.487 410.192 262.421 403.483 291.921 363.398C293.688 360.998 298.031 351.927 301.825 354.404C311.533 360.742 278.74 389.152 273.991 392.507C272.122 393.762 270.171 394.937 268.568 396.531C271.078 399.87 278.273 411.178 279.608 414.435C280.77 417.271 278.375 420.803 275.152 419.908C272.372 419.136 263.287 402.676 261.553 399.529C256.79 401.442 252.22 402.906 247.265 404.253C249.788 408.031 256.704 418.401 257.964 422.087C259.246 425.84 254.721 429.317 251.931 426.03C248.128 421.55 242.574 410.964 239.513 405.632C213.499 410.946 183.766 402.777 163.569 385.866L164.134 385.696C168.89 388.655 172.069 391.563 177.442 394.55C193.001 403.197 211.026 407.476 228.846 406.474C239.358 405.883 237.912 401.969 243.455 410.797C245.754 414.459 247.829 418.192 250.32 421.774L250.268 421.448L250.546 421.644L250.753 421.301C251.201 421.591 251.458 421.601 251.603 422.134L251.115 422.472L251.142 422.876L251.738 422.492C252.305 423.444 251.65 424.551 252.558 425.629C254.139 427.505 257.976 426.28 257.686 423.695C257.386 421.015 249.299 407.617 247 404.497L247.015 404.079C247.826 403.524 260.745 399.353 261.404 399.534C264.957 400.507 272.573 421.526 276.941 419.326C282.615 416.468 276.198 410.188 274.139 406.807C272.05 403.373 270.242 399.722 267.744 396.531C269.766 394.654 271.355 393.439 273.991 392.507C281.791 384.27 301.043 369.413 303.078 358.941C303.391 357.33 302.98 354.525 300.855 354.48C297.49 354.408 295.429 359.573 293.861 361.875C286.398 372.825 275.99 383.311 264.636 390.082C261.858 391.739 258.447 392.861 255.872 394.73C252.68 397.046 245.933 404.621 240.094 399.091L240.338 398.72C238.1 398.688 235.368 399.554 232.988 399.719C215.591 400.925 199.105 398.195 183.606 389.902C181.817 388.945 176.544 386.571 176.025 384.858Z"/>
	<path fill="#A7C957" transform="scale(0.0625 0.0625)" d="M255.475 288.413C258.521 287.856 259.651 288.663 260.803 291.56C257.366 309.266 239.338 321.59 222.444 323.995C218.992 324.6 215.628 323.138 216.771 318.793C217.552 315.821 222.231 316.013 224.614 315.636C247.825 311.964 249.56 291.736 255.475 288.413Z"/>
	<path fill="#A7C957" transform="scale(0.0625 0.0625)" d="M122.419 248.583Q122.594 248.537 122.77 248.499Q122.947 248.461 123.125 248.432Q123.303 248.403 123.483 248.382Q123.662 248.362 123.842 248.35Q124.022 248.339 124.203 248.336Q124.384 248.333 124.564 248.339Q124.745 248.345 124.925 248.36Q125.105 248.375 125.284 248.398Q125.463 248.422 125.64 248.454Q125.818 248.486 125.994 248.527Q126.17 248.568 126.344 248.617Q126.517 248.667 126.688 248.724Q126.86 248.782 127.028 248.848Q127.196 248.914 127.36 248.988Q127.525 249.063 127.686 249.145Q127.847 249.227 128.003 249.317Q128.16 249.406 128.312 249.504Q128.464 249.601 128.611 249.706Q128.759 249.811 128.9 249.922Q129.042 250.034 129.179 250.152Q129.315 250.271 129.445 250.396Q129.576 250.521 129.7 250.652Q129.824 250.783 129.941 250.92Q130.059 251.057 130.17 251.2Q130.28 251.343 130.384 251.491Q130.488 251.639 130.584 251.791Q130.68 251.944 130.769 252.101Q130.858 252.259 130.939 252.42Q131.02 252.582 131.093 252.747Q131.166 252.912 131.231 253.08Q131.296 253.249 131.352 253.42Q131.409 253.592 131.457 253.766Q131.505 253.94 131.545 254.116Q131.584 254.292 131.615 254.47Q131.646 254.648 131.669 254.828Q131.691 255.007 131.704 255.187Q131.718 255.367 131.723 255.547Q131.727 255.728 131.723 255.909Q131.719 256.089 131.706 256.269Q131.693 256.449 131.672 256.629Q131.65 256.808 131.62 256.986Q131.589 257.164 131.55 257.34Q131.511 257.517 131.464 257.691Q131.416 257.865 131.36 258.037Q131.304 258.209 131.24 258.377Q131.176 258.546 131.103 258.711Q131.031 258.877 130.951 259.039Q130.87 259.2 130.782 259.358Q130.694 259.516 130.598 259.669Q130.502 259.822 130.399 259.97Q130.296 260.118 130.186 260.261Q130.076 260.404 129.959 260.542Q129.841 260.679 129.718 260.811Q129.594 260.943 129.464 261.068Q129.334 261.194 129.199 261.313Q129.063 261.432 128.921 261.544Q128.78 261.656 128.633 261.761Q128.486 261.867 128.334 261.964Q128.183 262.062 128.026 262.153Q127.87 262.243 127.709 262.326Q127.549 262.408 127.384 262.483Q127.22 262.558 127.052 262.625Q126.884 262.691 126.713 262.75Q126.543 262.808 126.369 262.858Q126.134 262.926 125.896 262.978Q125.658 263.029 125.416 263.066Q125.175 263.102 124.932 263.122Q124.688 263.142 124.444 263.146Q124.2 263.15 123.957 263.138Q123.713 263.126 123.47 263.098Q123.228 263.07 122.988 263.027Q122.748 262.983 122.511 262.923Q122.274 262.864 122.042 262.789Q121.81 262.713 121.583 262.623Q121.356 262.533 121.136 262.428Q120.916 262.323 120.703 262.204Q120.49 262.085 120.285 261.952Q120.08 261.819 119.885 261.673Q119.689 261.527 119.504 261.368Q119.319 261.21 119.144 261.039Q118.969 260.868 118.806 260.687Q118.643 260.505 118.493 260.313Q118.342 260.121 118.204 259.92Q118.067 259.718 117.942 259.508Q117.818 259.298 117.708 259.08Q117.598 258.862 117.503 258.637Q117.407 258.413 117.327 258.182Q117.246 257.952 117.181 257.717Q117.116 257.481 117.067 257.242Q117.017 257.003 116.983 256.762Q116.95 256.52 116.932 256.276Q116.914 256.033 116.913 255.789Q116.911 255.545 116.926 255.301Q116.94 255.058 116.971 254.815Q117.001 254.573 117.048 254.334Q117.094 254.094 117.156 253.858Q117.218 253.622 117.296 253.39Q117.373 253.159 117.466 252.933Q117.558 252.707 117.665 252.488Q117.773 252.269 117.894 252.057Q118.015 251.845 118.151 251.642Q118.286 251.439 118.434 251.245Q118.582 251.051 118.743 250.867Q118.903 250.683 119.076 250.51Q119.248 250.338 119.432 250.177Q119.615 250.015 119.809 249.867Q120.002 249.718 120.205 249.583Q120.408 249.447 120.62 249.325Q120.831 249.203 121.05 249.096Q121.269 248.988 121.495 248.895Q121.721 248.802 121.952 248.724Q122.183 248.646 122.419 248.583Z"/>
</svg>
