<?xml version="1.0" standalone="no"?>
<!DOCTYPE svg PUBLIC "-//W3C//DTD SVG 20010904//EN"
 "http://www.w3.org/TR/2001/REC-SVG-20010904/DTD/svg10.dtd">
<svg version="1.0" xmlns="http://www.w3.org/2000/svg"
 width="300.000000pt" height="300.000000pt" viewBox="0 0 300.000000 300.000000"
 preserveAspectRatio="xMidYMid meet">
<metadata>
Created by potrace 1.10, written by Peter Selinger 2001-2011
</metadata>
<g transform="translate(0.000000,300.000000) scale(0.050000,-0.050000)"
fill="#723e29" stroke="none">
<path d="M1580 5000 l0 -60 -140 0 -140 0 0 -370 0 -370 -70 0 c-64 0 -70 -5
-70 -60 l0 -60 139 0 138 0 7 -65 6 -65 615 -5 615 -6 0 71 0 70 140 0 140 0
0 60 c0 55 -6 60 -70 60 l-70 0 0 120 0 120 70 0 70 0 0 190 0 190 -140 0
-140 0 0 60 0 60 -160 0 -160 0 0 60 0 60 -390 0 -390 0 0 -60z m80 -82 c26
-19 26 -20 -2 -12 -28 9 -29 4 -10 -37 26 -57 62 -63 89 -15 13 23 16 5 8 -60
l-10 -94 162 0 163 0 0 -70 0 -70 -160 0 -160 0 0 70 c0 67 -3 70 -70 70 l-70
0 0 -130 0 -130 59 0 c49 0 59 -9 65 -55 6 -54 8 -55 171 -61 l165 -6 0 61 c0
56 5 61 70 61 l70 0 0 130 c0 126 -1 130 -52 130 -32 0 -48 9 -43 25 11 32
187 34 181 3 -3 -15 29 -21 90 -19 74 3 94 12 94 38 0 48 46 72 135 73 70 0
75 -4 75 -59 0 -51 8 -59 65 -65 l65 -6 0 -120 0 -120 -64 -6 c-52 -5 -65 -16
-70 -60 -5 -47 -16 -55 -81 -60 -119 -10 -114 -124 5 -124 76 0 80 -3 80 -60
l0 -60 -550 0 -550 0 0 60 c0 55 -6 60 -70 60 l-70 0 0 235 c1 246 12 332 43
313 10 -6 13 -18 8 -26 -5 -8 3 -15 19 -15 16 0 24 7 19 15 -6 9 4 24 22 33
18 10 37 56 43 102 12 88 19 95 66 61z m680 -43 c-1 -47 -6 -57 -19 -36 -14
22 -24 23 -46 5 -16 -13 -34 -18 -42 -11 -7 7 3 25 22 39 41 31 43 31 -180 37
-220 6 -179 31 52 31 l213 0 0 -65z"/>
<path d="M4003 4883 c-35 -32 -63 -70 -63 -83 0 -42 124 -142 168 -136 38 5
42 19 42 136 0 157 -42 181 -147 83z"/>
<path d="M3594 4804 c-48 -6 -55 -15 -50 -60 7 -61 88 -89 108 -37 24 64 0
103 -58 97z"/>
<path d="M4384 4745 c5 -43 18 -56 62 -61 86 -10 76 -230 -11 -240 -86 -10
-82 -124 5 -124 53 0 60 7 60 60 0 49 8 60 46 60 47 0 154 94 154 135 0 32
-109 105 -158 105 -33 0 -42 12 -42 60 0 54 -7 60 -61 60 -55 0 -61 -6 -55
-55z"/>
<path d="M3414 4624 l-56 -58 59 -63 c103 -111 166 -90 159 52 -7 142 -67 168
-162 69z"/>
<path d="M3813 4543 c-21 -23 -33 -71 -33 -130 0 -90 -2 -93 -60 -93 -86 0
-88 -126 -4 -206 79 -76 332 -81 401 -8 58 63 65 369 8 418 -57 50 -273 63
-312 19z"/>
<path d="M3120 3960 c0 -53 -7 -60 -60 -60 l-60 0 0 -610 0 -610 60 0 60 0 0
-130 0 -130 70 0 c104 0 109 -134 5 -144 -59 -5 -66 -13 -71 -81 -5 -62 -14
-75 -51 -75 -54 0 -133 -53 -133 -89 0 -14 -27 -31 -60 -38 -53 -11 -60 -20
-60 -82 l0 -69 -175 -6 c-160 -5 -177 -10 -195 -51 -17 -39 -34 -45 -135 -45
-114 0 -115 0 -115 -60 0 -53 -7 -60 -60 -60 -53 0 -60 7 -60 60 l0 60 -181 0
-182 0 7 65 6 65 475 5 475 6 0 59 c0 55 6 60 70 60 l70 0 0 719 0 718 -65 7
c-57 5 -66 14 -71 71 l-7 65 -958 0 -959 0 0 -65 0 -65 805 0 805 0 6 -55 7
-55 -822 0 -821 0 0 50 c0 44 -9 50 -70 50 l-70 0 0 -720 0 -720 80 0 c75 0
80 -3 80 -59 l0 -60 205 -5 205 -6 6 -65 c6 -64 5 -65 -75 -65 -77 0 -81 -3
-81 -60 0 -55 -6 -60 -70 -60 -67 0 -70 -3 -70 -70 0 -67 3 -70 70 -70 61 0
70 -6 70 -50 l0 -50 -310 0 c-290 0 -310 -2 -310 -38 0 -61 7 -61 2660 -62
l2540 -1 0 51 c0 47 -6 50 -110 50 -104 0 -110 3 -110 50 0 42 9 50 60 50 53
0 60 7 60 60 0 53 -7 60 -60 60 -51 0 -60 -8 -60 -50 0 -49 -3 -50 -160 -50
-147 0 -160 3 -160 41 0 29 17 43 60 52 52 10 60 21 60 80 0 46 9 67 30 67 25
0 30 43 30 270 l0 270 130 0 130 0 0 70 c0 64 -5 70 -60 70 -50 0 -60 8 -60
48 0 58 -32 72 -169 72 -104 0 -171 -38 -171 -97 0 -12 -27 -23 -60 -23 -55 0
-60 -6 -60 -68 0 -73 -51 -92 -215 -76 -104 10 -99 144 5 144 l70 0 0 130 0
130 60 0 60 0 0 610 0 610 -60 0 c-53 0 -60 7 -60 60 l0 60 -140 0 -140 0 0
-60 c0 -53 -7 -60 -60 -60 -55 0 -60 -6 -60 -70 l0 -70 -430 0 -430 0 0 70 c0
64 -5 70 -60 70 -53 0 -60 7 -60 60 l0 60 -140 0 -140 0 0 -60z m140 -130 c0
-67 3 -70 73 -70 l72 0 -12 -93 c-7 -51 -13 -105 -13 -120 0 -17 -23 -27 -60
-27 -53 0 -60 -7 -60 -60 0 -53 -7 -60 -60 -60 l-60 0 0 250 0 250 60 0 c55 0
60 -6 60 -70z m1500 -180 l0 -250 -60 0 c-60 0 -60 0 -60 120 l0 120 -70 0
-70 0 0 -119 0 -118 65 -7 c57 -5 66 -14 71 -71 6 -57 14 -65 65 -65 l59 0 0
-289 0 -288 -65 -7 c-54 -5 -65 -14 -65 -56 -1 -47 -7 -50 -125 -56 l-125 -6
0 -79 c0 -74 3 -79 60 -79 55 0 60 -6 60 -70 0 -67 3 -70 70 -70 l70 0 0 -130
0 -130 -97 0 c-131 0 -223 -34 -223 -82 0 -25 -14 -38 -41 -38 -68 0 -159 -58
-159 -101 0 -36 -14 -39 -170 -39 l-170 0 0 60 0 60 130 0 130 0 0 60 c0 59 2
60 100 60 l100 0 0 80 0 80 -100 0 -100 0 0 -70 0 -70 -189 0 -188 0 -7 -55
c-6 -53 -11 -55 -131 -61 l-125 -6 0 61 0 61 -141 0 -142 0 7 55 c5 48 16 56
81 61 71 6 75 10 75 75 0 63 5 69 60 69 55 0 60 6 60 70 0 64 5 70 60 70 57 0
60 4 60 80 l0 80 -130 0 -130 0 0 60 c0 53 -7 60 -60 60 l-60 0 0 290 0 290
60 0 c53 0 60 7 60 59 0 51 8 59 65 65 57 5 66 14 71 71 6 57 14 65 65 65 52
0 59 7 59 61 l0 61 405 -2 c223 -1 421 -2 440 -1 25 1 35 17 35 58 0 53 6 58
115 75 96 15 115 25 115 58 -1 41 34 66 95 69 32 1 35 -24 35 -249z m-2080
-260 c0 -45 -8 -50 -80 -50 -72 0 -80 5 -80 50 0 45 8 50 80 50 72 0 80 -5 80
-50z m-760 -490 c0 -53 -7 -60 -60 -60 l-60 0 0 -140 0 -140 -320 0 -320 0 0
139 0 138 65 7 c54 5 66 15 71 61 l7 55 308 0 309 0 0 -60z m3320 -550 c0 -64
-5 -70 -60 -70 l-60 0 0 -270 c0 -227 -5 -270 -30 -270 -21 0 -30 21 -30 70 0
67 -3 70 -70 70 l-70 0 0 200 0 200 70 0 c67 0 70 3 70 70 0 70 0 70 90 70 90
0 90 0 90 -70z m-3655 -395 l5 -345 230 -3 230 -3 6 -52 7 -52 -512 0 -511 0
0 50 c0 46 7 50 95 50 196 1 185 -22 185 362 l0 338 130 0 129 0 6 -345z
m1535 -35 c0 -58 -3 -60 -90 -60 -87 0 -90 2 -90 60 0 58 3 60 90 60 87 0 90
-2 90 -60z m1644 -5 c5 -57 14 -66 71 -71 90 -9 105 -224 15 -224 -27 0 -50 9
-50 20 0 11 -36 58 -80 105 -106 112 -117 235 -21 235 51 0 59 -8 65 -65z
m-264 -115 c0 -58 -3 -60 -90 -60 -87 0 -90 2 -90 60 0 58 3 60 90 60 87 0 90
-2 90 -60z m-1180 -90 c0 -26 -61 -30 -430 -30 -383 0 -531 18 -385 46 137 26
815 13 815 -16z m940 -40 l0 -70 120 0 c115 0 120 -2 120 -50 l0 -50 -210 0
-210 0 0 76 c0 106 46 158 145 162 27 2 35 -14 35 -68z m-1920 -130 l0 -60
720 0 720 0 0 50 c0 44 9 50 70 50 61 0 70 -6 70 -50 0 -42 9 -50 60 -50 51 0
60 -8 60 -50 l0 -50 -910 0 -910 0 0 110 c0 109 1 110 60 110 53 0 60 -7 60
-60z m2700 -110 c0 -48 -5 -50 -130 -50 -125 0 -130 2 -130 50 0 48 5 50 130
50 125 0 130 -2 130 -50z"/>
<path d="M3364 3106 c-20 -7 -16 -18 15 -39 51 -36 52 -71 3 -115 -41 -37
-107 -20 -129 33 -5 14 -11 -2 -11 -35 -5 -157 208 -228 351 -119 162 124 -30
355 -229 275z"/>
<path d="M4260 3102 c-63 -12 -65 -14 -24 -26 37 -10 46 -25 40 -67 -9 -79
-63 -107 -115 -60 -70 63 -53 -35 18 -108 80 -82 208 -86 299 -9 86 72 83 145
-9 226 -72 63 -87 66 -209 44z"/>
<path d="M3720 2840 c0 -33 9 -60 20 -60 11 0 20 -18 20 -41 0 -59 60 -74 100
-24 32 40 34 40 57 3 34 -55 100 -48 115 12 7 28 21 50 31 50 11 0 17 25 13
55 -3 33 -18 55 -36 55 -18 0 -33 -22 -36 -55 -10 -82 -84 -77 -84 5 0 40 -10
60 -30 60 -20 0 -30 -20 -30 -60 0 -47 -9 -60 -40 -60 -31 0 -40 13 -40 60 0
40 -10 60 -30 60 -20 0 -30 -20 -30 -60z"/>
<path d="M516 1140 l9 -60 2487 0 2488 0 0 60 0 60 -2497 0 -2496 0 9 -60z"/>
</g>
</svg>
